<?xml version="1.0" encoding="utf-8"?>
<!-- Generator: Adobe Illustrator 16.0.0, SVG Export Plug-In . SVG Version: 6.00 Build 0)  -->
<!DOCTYPE svg PUBLIC "-//W3C//DTD SVG 1.1//EN" "http://www.w3.org/Graphics/SVG/1.1/DTD/svg11.dtd">
<svg version="1.1" id="Layer_1" xmlns="http://www.w3.org/2000/svg" xmlns:xlink="http://www.w3.org/1999/xlink" xml:space="preserve">
<rect fill="#FFFFFF" />
<g>
	<path fill="#626366" d="M736.41,194.432c0.859,0.528,2.113,0.968,3.434,0.968c1.957,0,3.102-1.034,3.102-2.53
		c0-1.386-0.791-2.178-2.795-2.948c-2.42-0.858-3.916-2.112-3.916-4.203c0-2.311,1.914-4.027,4.797-4.027
		c1.518,0,2.619,0.352,3.279,0.726l-0.529,1.563c-0.484-0.264-1.475-0.704-2.816-0.704c-2.023,0-2.793,1.21-2.793,2.222
		c0,1.386,0.9,2.068,2.947,2.86c2.508,0.968,3.785,2.178,3.785,4.356c0,2.289-1.695,4.269-5.193,4.269
		c-1.43,0-2.992-0.418-3.785-0.946L736.41,194.432z"/>
	<path fill="#626366" d="M749.809,183.123c0.021,0.66-0.461,1.188-1.232,1.188c-0.682,0-1.166-0.528-1.166-1.188
		c0-0.682,0.506-1.21,1.211-1.21C749.348,181.913,749.809,182.44,749.809,183.123z M747.652,196.765v-10.649h1.938v10.649H747.652z"
		/>
	<path fill="#626366" d="M752.998,188.998c0-1.1-0.021-2.002-0.088-2.882h1.695l0.088,1.716h0.064
		c0.596-1.012,1.586-1.958,3.346-1.958c1.451,0,2.553,0.88,3.014,2.134h0.045c0.33-0.594,0.748-1.056,1.188-1.386
		c0.639-0.484,1.342-0.748,2.354-0.748c1.408,0,3.5,0.924,3.5,4.621v6.271h-1.893v-6.029c0-2.046-0.748-3.278-2.311-3.278
		c-1.1,0-1.959,0.814-2.289,1.76c-0.088,0.264-0.154,0.616-0.154,0.968v6.579h-1.891v-6.381c0-1.694-0.748-2.926-2.223-2.926
		c-1.211,0-2.09,0.968-2.398,1.936c-0.109,0.286-0.154,0.616-0.154,0.946v6.425h-1.893V188.998z"/>
	<path fill="#626366" d="M771.545,189.592c0-1.364-0.045-2.464-0.088-3.477h1.738l0.088,1.826h0.043
		c0.793-1.298,2.047-2.068,3.785-2.068c2.574,0,4.51,2.178,4.51,5.413c0,3.829-2.332,5.721-4.84,5.721
		c-1.408,0-2.641-0.616-3.279-1.672h-0.043v5.787h-1.914V189.592z M773.459,192.43c0,0.286,0.043,0.55,0.088,0.792
		c0.352,1.342,1.518,2.266,2.904,2.266c2.047,0,3.234-1.672,3.234-4.114c0-2.134-1.123-3.961-3.168-3.961
		c-1.32,0-2.553,0.946-2.928,2.398c-0.064,0.242-0.131,0.528-0.131,0.792V192.43z"/>
	<path fill="#626366" d="M784.26,181.143h1.938v15.622h-1.938V181.143z"/>
	<path fill="#626366" d="M790.729,191.792c0.043,2.618,1.715,3.696,3.652,3.696c1.385,0,2.223-0.242,2.947-0.55l0.33,1.386
		c-0.682,0.308-1.848,0.66-3.541,0.66c-3.279,0-5.238-2.157-5.238-5.369s1.893-5.743,4.996-5.743c3.477,0,4.4,3.059,4.4,5.017
		c0,0.396-0.045,0.704-0.066,0.902H790.729z M796.404,190.406c0.021-1.232-0.506-3.146-2.684-3.146
		c-1.959,0-2.816,1.804-2.971,3.146H796.404z"/>
	<path fill="#626366" d="M736.41,243.432c0.859,0.528,2.113,0.968,3.434,0.968c1.957,0,3.102-1.034,3.102-2.53
		c0-1.386-0.791-2.178-2.795-2.948c-2.42-0.858-3.916-2.112-3.916-4.203c0-2.311,1.914-4.027,4.797-4.027
		c1.518,0,2.619,0.352,3.279,0.726l-0.529,1.563c-0.484-0.264-1.475-0.704-2.816-0.704c-2.023,0-2.793,1.21-2.793,2.222
		c0,1.386,0.9,2.068,2.947,2.86c2.508,0.968,3.785,2.178,3.785,4.356c0,2.289-1.695,4.269-5.193,4.269
		c-1.43,0-2.992-0.418-3.785-0.946L736.41,243.432z"/>
	<path fill="#626366" d="M748.863,240.792c0.043,2.618,1.715,3.696,3.652,3.696c1.385,0,2.223-0.242,2.947-0.55l0.33,1.386
		c-0.682,0.308-1.848,0.66-3.541,0.66c-3.279,0-5.238-2.157-5.238-5.369s1.893-5.743,4.996-5.743c3.477,0,4.4,3.059,4.4,5.017
		c0,0.396-0.045,0.704-0.066,0.902H748.863z M754.539,239.406c0.021-1.232-0.506-3.146-2.684-3.146
		c-1.959,0-2.816,1.804-2.971,3.146H754.539z"/>
	<path fill="#626366" d="M766.596,245.369c-0.506,0.264-1.629,0.616-3.059,0.616c-3.213,0-5.303-2.179-5.303-5.435
		c0-3.278,2.244-5.655,5.721-5.655c1.145,0,2.156,0.286,2.684,0.55l-0.439,1.496c-0.463-0.264-1.188-0.506-2.244-0.506
		c-2.443,0-3.764,1.804-3.764,4.026c0,2.464,1.586,3.982,3.697,3.982c1.1,0,1.826-0.286,2.377-0.528L766.596,245.369z"/>
	<path fill="#626366" d="M777.969,242.86c0,1.1,0.021,2.068,0.088,2.904h-1.715l-0.111-1.738h-0.043
		c-0.506,0.858-1.629,1.98-3.521,1.98c-1.672,0-3.674-0.924-3.674-4.665v-6.227h1.936v5.896c0,2.024,0.617,3.389,2.377,3.389
		c1.299,0,2.199-0.902,2.553-1.76c0.109-0.286,0.176-0.638,0.176-0.99v-6.535h1.936V242.86z"/>
	<path fill="#626366" d="M781.379,238.438c0-1.254-0.023-2.332-0.088-3.322h1.693l0.066,2.09h0.088
		c0.484-1.43,1.65-2.333,2.947-2.333c0.221,0,0.375,0.022,0.551,0.066v1.826c-0.197-0.044-0.396-0.066-0.66-0.066
		c-1.363,0-2.332,1.034-2.596,2.486c-0.045,0.264-0.088,0.572-0.088,0.902v5.677h-1.914V238.438z"/>
	<path fill="#626366" d="M789.629,240.792c0.043,2.618,1.715,3.696,3.652,3.696c1.385,0,2.223-0.242,2.947-0.55l0.33,1.386
		c-0.682,0.308-1.848,0.66-3.541,0.66c-3.279,0-5.238-2.157-5.238-5.369s1.893-5.743,4.996-5.743c3.477,0,4.4,3.059,4.4,5.017
		c0,0.396-0.045,0.704-0.066,0.902H789.629z M795.305,239.406c0.021-1.232-0.506-3.146-2.684-3.146
		c-1.959,0-2.816,1.804-2.971,3.146H795.305z"/>
	<path fill="#626366" d="M747.039,294.281c-0.705,0.352-2.113,0.703-3.918,0.703c-4.18,0-7.326-2.641-7.326-7.503
		c0-4.643,3.146-7.789,7.744-7.789c1.85,0,3.016,0.396,3.521,0.66l-0.463,1.563c-0.727-0.353-1.76-0.616-2.992-0.616
		c-3.477,0-5.787,2.223-5.787,6.117c0,3.63,2.09,5.963,5.699,5.963c1.166,0,2.354-0.242,3.125-0.617L747.039,294.281z"/>
	<path fill="#626366" d="M758.961,289.352c0,3.939-2.727,5.655-5.303,5.655c-2.881,0-5.104-2.112-5.104-5.479
		c0-3.564,2.332-5.654,5.281-5.654C756.895,283.873,758.961,286.096,758.961,289.352z M750.512,289.462
		c0,2.333,1.344,4.093,3.236,4.093c1.848,0,3.234-1.738,3.234-4.137c0-1.805-0.902-4.093-3.191-4.093
		S750.512,287.438,750.512,289.462z"/>
	<path fill="#626366" d="M761.602,286.998c0-1.101-0.023-2.003-0.088-2.883h1.715l0.111,1.76h0.043
		c0.529-1.012,1.76-2.002,3.521-2.002c1.473,0,3.762,0.881,3.762,4.533v6.358h-1.936v-6.139c0-1.716-0.639-3.146-2.465-3.146
		c-1.275,0-2.266,0.901-2.596,1.979c-0.088,0.242-0.133,0.572-0.133,0.902v6.403h-1.936V286.998z"/>
	<path fill="#626366" d="M774.471,284.115l2.09,5.984c0.354,0.969,0.639,1.849,0.859,2.729h0.066c0.24-0.88,0.549-1.76,0.9-2.729
		l2.068-5.984h2.025l-4.182,10.649h-1.848l-4.049-10.649H774.471z"/>
	<path fill="#626366" d="M785.361,289.792c0.043,2.618,1.715,3.696,3.652,3.696c1.385,0,2.223-0.242,2.947-0.55l0.33,1.386
		c-0.682,0.309-1.848,0.66-3.541,0.66c-3.279,0-5.238-2.156-5.238-5.369c0-3.212,1.893-5.742,4.996-5.742
		c3.477,0,4.4,3.059,4.4,5.017c0,0.396-0.045,0.704-0.066,0.902H785.361z M791.037,288.406c0.021-1.232-0.506-3.146-2.684-3.146
		c-1.959,0-2.816,1.804-2.971,3.146H791.037z"/>
	<path fill="#626366" d="M795.502,286.998c0-1.101-0.021-2.003-0.088-2.883h1.717l0.109,1.76h0.045
		c0.527-1.012,1.76-2.002,3.52-2.002c1.475,0,3.764,0.881,3.764,4.533v6.358h-1.938v-6.139c0-1.716-0.637-3.146-2.465-3.146
		c-1.275,0-2.266,0.901-2.596,1.979c-0.088,0.242-0.131,0.572-0.131,0.902v6.403h-1.938V286.998z"/>
	<path fill="#626366" d="M810.066,281.123c0.021,0.66-0.461,1.188-1.232,1.188c-0.682,0-1.166-0.527-1.166-1.188
		c0-0.683,0.506-1.21,1.211-1.21C809.605,279.913,810.066,280.44,810.066,281.123z M807.91,294.765v-10.649h1.938v10.649H807.91z"/>
	<path fill="#626366" d="M814.334,289.792c0.045,2.618,1.717,3.696,3.652,3.696c1.387,0,2.223-0.242,2.949-0.55l0.33,1.386
		c-0.682,0.309-1.848,0.66-3.543,0.66c-3.279,0-5.236-2.156-5.236-5.369c0-3.212,1.893-5.742,4.994-5.742
		c3.477,0,4.4,3.059,4.4,5.017c0,0.396-0.043,0.704-0.066,0.902H814.334z M820.012,288.406c0.021-1.232-0.506-3.146-2.686-3.146
		c-1.957,0-2.816,1.804-2.971,3.146H820.012z"/>
	<path fill="#626366" d="M824.477,286.998c0-1.101-0.023-2.003-0.088-2.883h1.715l0.111,1.76h0.043
		c0.529-1.012,1.76-2.002,3.521-2.002c1.473,0,3.762,0.881,3.762,4.533v6.358h-1.936v-6.139c0-1.716-0.639-3.146-2.465-3.146
		c-1.275,0-2.266,0.901-2.596,1.979c-0.088,0.242-0.133,0.572-0.133,0.902v6.403h-1.936V286.998z"/>
	<path fill="#626366" d="M839.129,281.057v3.059h2.771v1.475h-2.771v5.742c0,1.32,0.373,2.068,1.451,2.068
		c0.506,0,0.881-0.066,1.123-0.132l0.088,1.452c-0.375,0.154-0.969,0.264-1.717,0.264c-0.902,0-1.627-0.285-2.09-0.814
		c-0.551-0.571-0.748-1.518-0.748-2.771v-5.809h-1.65v-1.475h1.65v-2.553L839.129,281.057z"/>
	<path fill="#626366" d="M744.354,336.812h-5.764v5.347h6.424v1.606h-8.34v-14.83h8.01v1.606h-6.094v4.687h5.764V336.812z"/>
	<path fill="#626366" d="M755.133,343.369c-0.506,0.264-1.627,0.615-3.059,0.615c-3.211,0-5.303-2.178-5.303-5.435
		c0-3.278,2.244-5.655,5.721-5.655c1.145,0,2.156,0.287,2.686,0.551l-0.439,1.496c-0.463-0.264-1.189-0.506-2.246-0.506
		c-2.441,0-3.762,1.805-3.762,4.026c0,2.464,1.584,3.982,3.697,3.982c1.1,0,1.826-0.286,2.375-0.528L755.133,343.369z"/>
	<path fill="#626366" d="M767.102,338.352c0,3.939-2.729,5.655-5.303,5.655c-2.883,0-5.105-2.112-5.105-5.479
		c0-3.564,2.334-5.654,5.281-5.654C765.033,332.873,767.102,335.096,767.102,338.352z M758.652,338.462
		c0,2.333,1.342,4.093,3.234,4.093c1.848,0,3.234-1.738,3.234-4.137c0-1.805-0.902-4.093-3.189-4.093
		C759.643,334.325,758.652,336.438,758.652,338.462z"/>
	<path fill="#626366" d="M769.74,335.998c0-1.101-0.021-2.003-0.088-2.883h1.717l0.109,1.76h0.045
		c0.527-1.012,1.76-2.002,3.52-2.002c1.475,0,3.764,0.881,3.764,4.533v6.358h-1.938v-6.139c0-1.716-0.637-3.146-2.465-3.146
		c-1.275,0-2.266,0.901-2.596,1.979c-0.088,0.242-0.131,0.572-0.131,0.902v6.403h-1.938V335.998z"/>
	<path fill="#626366" d="M791.785,338.352c0,3.939-2.727,5.655-5.303,5.655c-2.881,0-5.104-2.112-5.104-5.479
		c0-3.564,2.332-5.654,5.281-5.654C789.719,332.873,791.785,335.096,791.785,338.352z M783.336,338.462
		c0,2.333,1.344,4.093,3.236,4.093c1.848,0,3.234-1.738,3.234-4.137c0-1.805-0.902-4.093-3.191-4.093
		S783.336,336.438,783.336,338.462z"/>
	<path fill="#626366" d="M794.424,335.998c0-1.101-0.021-2.003-0.088-2.883h1.695l0.088,1.717h0.064
		c0.596-1.013,1.586-1.959,3.346-1.959c1.451,0,2.553,0.881,3.014,2.135h0.045c0.33-0.595,0.748-1.057,1.188-1.387
		c0.639-0.484,1.342-0.748,2.354-0.748c1.408,0,3.5,0.924,3.5,4.621v6.271h-1.893v-6.028c0-2.047-0.748-3.279-2.311-3.279
		c-1.1,0-1.959,0.814-2.289,1.761c-0.088,0.264-0.154,0.616-0.154,0.968v6.579h-1.891v-6.381c0-1.694-0.748-2.927-2.223-2.927
		c-1.211,0-2.09,0.969-2.398,1.937c-0.109,0.286-0.154,0.616-0.154,0.946v6.425h-1.893V335.998z"/>
	<path fill="#626366" d="M815.127,330.123c0.021,0.66-0.463,1.188-1.232,1.188c-0.682,0-1.166-0.527-1.166-1.188
		c0-0.683,0.506-1.211,1.209-1.211C814.664,328.912,815.127,329.44,815.127,330.123z M812.971,343.765v-10.649h1.936v10.649H812.971
		z"/>
	<path fill="#626366" d="M825.906,343.369c-0.506,0.264-1.627,0.615-3.059,0.615c-3.211,0-5.303-2.178-5.303-5.435
		c0-3.278,2.244-5.655,5.721-5.655c1.145,0,2.156,0.287,2.686,0.551l-0.439,1.496c-0.463-0.264-1.189-0.506-2.246-0.506
		c-2.441,0-3.762,1.805-3.762,4.026c0,2.464,1.584,3.982,3.697,3.982c1.1,0,1.826-0.286,2.375-0.528L825.906,343.369z"/>
	<path fill="#626366" d="M834.268,343.765l-0.154-1.343h-0.066c-0.594,0.837-1.738,1.585-3.256,1.585
		c-2.156,0-3.256-1.519-3.256-3.059c0-2.574,2.287-3.982,6.402-3.96v-0.221c0-0.88-0.242-2.465-2.42-2.465
		c-0.99,0-2.025,0.309-2.773,0.793l-0.439-1.276c0.879-0.572,2.156-0.946,3.498-0.946c3.256,0,4.049,2.223,4.049,4.356v3.983
		c0,0.924,0.043,1.826,0.176,2.552H834.268z M833.98,338.33c-2.111-0.045-4.51,0.33-4.51,2.398c0,1.254,0.836,1.848,1.826,1.848
		c1.387,0,2.266-0.88,2.574-1.781c0.066-0.199,0.109-0.419,0.109-0.617V338.33z"/>
	<path fill="#626366" d="M839.172,328.143h1.938v15.622h-1.938V328.143z"/>
	<path fill="#F16522" d="M744.354,385.812h-5.764v5.347h6.424v1.606h-8.34v-14.83h8.01v1.606h-6.094v4.687h5.764V385.812z"/>
	<path fill="#F16522" d="M754.209,392.765v-9.175h-4.467v9.175h-1.914v-9.175h-1.496v-1.475h1.496v-0.352
		c0-1.497,0.352-2.795,1.188-3.631c0.617-0.616,1.496-0.99,2.686-0.99c0.615,0,1.188,0.197,1.518,0.374l-0.396,1.431
		c-0.285-0.133-0.703-0.265-1.143-0.265c-1.52,0-1.938,1.298-1.938,2.97v0.463h4.467v-0.506c0-1.496,0.352-2.861,1.254-3.719
		c0.727-0.704,1.695-0.99,2.574-0.99c0.705,0,1.277,0.154,1.65,0.309l-0.242,1.496c-0.307-0.133-0.682-0.242-1.254-0.242
		c-1.629,0-2.068,1.452-2.068,3.08v0.572h2.574v1.475h-2.553v9.175H754.209z"/>
	<path fill="#F16522" d="M761.447,387.792c0.043,2.618,1.715,3.696,3.652,3.696c1.385,0,2.223-0.242,2.947-0.55l0.33,1.386
		c-0.682,0.309-1.848,0.66-3.541,0.66c-3.279,0-5.238-2.156-5.238-5.369c0-3.212,1.893-5.742,4.996-5.742
		c3.477,0,4.4,3.059,4.4,5.017c0,0.396-0.045,0.704-0.066,0.902H761.447z M767.123,386.406c0.021-1.232-0.506-3.146-2.684-3.146
		c-1.959,0-2.816,1.804-2.971,3.146H767.123z"/>
	<path fill="#F16522" d="M779.18,392.369c-0.506,0.264-1.629,0.615-3.059,0.615c-3.213,0-5.303-2.178-5.303-5.435
		c0-3.278,2.244-5.655,5.721-5.655c1.145,0,2.156,0.287,2.684,0.551l-0.439,1.496c-0.463-0.264-1.188-0.506-2.244-0.506
		c-2.443,0-3.764,1.805-3.764,4.026c0,2.464,1.586,3.982,3.697,3.982c1.1,0,1.826-0.286,2.377-0.528L779.18,392.369z"/>
	<path fill="#F16522" d="M784.26,379.057v3.059h2.773v1.475h-2.773v5.742c0,1.32,0.375,2.068,1.453,2.068
		c0.506,0,0.879-0.066,1.121-0.132l0.088,1.452c-0.373,0.154-0.967,0.264-1.715,0.264c-0.902,0-1.629-0.285-2.092-0.814
		c-0.549-0.571-0.748-1.518-0.748-2.771v-5.809h-1.648v-1.475h1.648v-2.553L784.26,379.057z"/>
	<path fill="#F16522" d="M791.564,379.123c0.021,0.66-0.463,1.188-1.232,1.188c-0.682,0-1.166-0.527-1.166-1.188
		c0-0.683,0.506-1.211,1.209-1.211C791.102,377.912,791.564,378.44,791.564,379.123z M789.408,392.765v-10.649h1.936v10.649H789.408
		z"/>
	<path fill="#F16522" d="M795.502,382.115l2.09,5.984c0.354,0.969,0.639,1.849,0.859,2.729h0.066c0.24-0.88,0.549-1.76,0.9-2.729
		l2.068-5.984h2.025l-4.182,10.649h-1.848l-4.049-10.649H795.502z"/>
	<path fill="#F16522" d="M806.393,387.792c0.043,2.618,1.715,3.696,3.652,3.696c1.385,0,2.223-0.242,2.947-0.55l0.33,1.386
		c-0.682,0.309-1.848,0.66-3.541,0.66c-3.279,0-5.238-2.156-5.238-5.369c0-3.212,1.893-5.742,4.996-5.742
		c3.477,0,4.4,3.059,4.4,5.017c0,0.396-0.045,0.704-0.066,0.902H806.393z M812.068,386.406c0.021-1.232-0.506-3.146-2.684-3.146
		c-1.959,0-2.816,1.804-2.971,3.146H812.068z"/>
</g>
<path fill="#808080" d="M625.101,355.262v-2.09c0,0,1.191-2.714-31.899-3.615v-35.947h4.038v-27.998l-3.074-1.455v-1.625
	l-2.218-1.08v-9.095l7.749-3.425l1.723-0.176v-1.392h2.51v-0.976l-1.115-1.116l0.835-0.834l-22.427-16.439l-80.517-53.071
	l-31.897,34.406l-80.655-34.826l-38.304,50.846l0.834,1.253l1.253-0.833v3.761h1.253v0.833l5.104,1.313v1.229
	c0,0.245,0.162,0.464,0.402,0.532c0,0,6.351,1.809,7.07,2.015c0,0.484,0,3.06,0,4.73l-5.888-0.624l-30.926,40.814l1.044,1.048
	l1.324-0.909v4.04h0.834v2.229l15.325,1.114v50.289l1.042-0.028v0.981l-13.204,0.975v2.887l-9.799,0.974v3.567l66.535,4.017
	l37.19-6.548l72.019,1.812l28.978-4.737c0,0,98.621,3.764,98.621-3.898v-1.811C627.772,355.267,625.101,355.262,625.101,355.262z
	 M591.947,269.734l4.182-0.432c-1.409,0.621-2.937,1.295-4.182,1.847V269.734z M359.744,313.07v45.238l-4.258,0.192v-0.87
	l0.953-0.088l-0.417-46.631l3.4,1.347C359.767,312.393,359.747,313.031,359.744,313.07z M361.874,358.213l-1.025,0.047v-45.15
	c0.034-0.535-0.136-1.535-1.027-1.881l-3.811-1.51l-0.014-1.379l5.877,0.535V358.213z M367.814,260.401l-0.941-0.103v-5.261
	c0-0.247-0.163-0.465-0.401-0.535c0,0-6.353-1.807-7.072-2.009c0-0.156,0-0.347,0-0.526l8.415,2.163V260.401z M376.656,353.746
	l-2.153-0.059v-3.242l2.153-0.072V353.746z M376.656,349.813l-2.153,0.075v-3.618l2.153-0.081V349.813z M376.656,345.631
	l-2.153,0.081v-3.619l2.153-0.079V345.631z M376.656,341.453l-2.153,0.079v-3.62l2.153-0.08V341.453z M376.656,337.275l-2.153,0.078
	v-3.621l2.153-0.078V337.275z M376.656,333.098l-2.153,0.076v-3.619l2.153-0.079V333.098z M376.656,328.914l-2.153,0.082v-3.622
	l2.153-0.075V328.914z M376.656,324.737l-2.153,0.079v-3.621l2.153-0.08V324.737z M376.656,320.559l-2.153,0.08v-3.622l2.153-0.079
	V320.559z M376.656,316.381l-2.153,0.076v-3.225c0.765-0.396,1.487-0.658,2.153-0.807V316.381z M379.1,353.813l-0.017-0.002v-3.527
	h0.017V353.813z M379.1,349.724h-0.017v-3.622h0.017V349.724z M379.1,345.545h-0.017v-3.617l0.017-0.002V345.545z M379.1,341.364
	l-0.017,0.003v-3.621h0.017V341.364z M379.1,337.188h-0.017v-3.619h0.017V337.188z M379.1,333.008h-0.017v-3.622h0.017V333.008z
	 M379.1,328.829h-0.017v-3.621h0.017V328.829z M379.1,324.649l-0.017,0.002v-3.622h0.017V324.649z M379.1,320.472h-0.017v-3.62
	l0.017-0.002V320.472z M379.1,316.291h-0.017v-3.971c0.005,0.004,0.012,0.008,0.017,0.008V316.291z M381.67,353.881l-2.013-0.055
	v-3.563l2.013-0.078V353.881z M381.67,349.629l-2.013,0.074v-3.62l2.013-0.074V349.629z M381.67,345.452l-2.013,0.072v-3.618
	l2.013-0.078V345.452z M381.67,341.274l-2.013,0.072v-3.622l2.013-0.074V341.274z M381.67,337.096l-2.013,0.07v-3.619l2.013-0.076
	V337.096z M381.67,332.916l-2.013,0.07v-3.621l2.013-0.072V332.916z M381.67,328.736l-2.013,0.072v-3.619l2.013-0.074V328.736z
	 M381.67,324.559l-2.013,0.072v-3.622l2.013-0.072V324.559z M381.67,320.378l-2.013,0.072v-3.619l2.013-0.073V320.378z
	 M381.67,316.197l-2.013,0.074v-3.828c0.908,0.215,1.603,0.575,2.013,0.852V316.197z M387.46,353.763l-0.149-0.003v-3.776
	l0.149-0.007V353.763z M387.46,349.424l-0.149,0.003v-3.622l0.149-0.006V349.424z M387.46,345.24l-0.149,0.007v-3.62l0.149-0.002
	V345.24z M387.46,341.063l-0.149,0.005v-3.622l0.149-0.005V341.063z M387.46,336.885l-0.149,0.004v-3.618l0.149-0.007V336.885z
	 M387.46,332.707l-0.149,0.004v-3.622l0.149-0.007V332.707z M387.46,328.525l-0.149,0.006v-3.62l0.149-0.006V328.525z
	 M387.46,324.35l-0.149,0.003v-3.622l0.149-0.005V324.35z M387.46,320.169l-0.149,0.005v-3.621l0.149-0.006V320.169z
	 M387.46,315.992l-0.149,0.004v-3.358c0.05-0.026,0.099-0.047,0.149-0.078V315.992z M389.902,353.829l-1.885-0.052v-3.818
	l1.885-0.07V353.829z M389.902,349.33l-1.885,0.068v-3.617l1.885-0.069V349.33z M389.902,345.155l-1.885,0.066v-3.621l1.885-0.068
	V345.155z M389.902,340.973l-1.885,0.069v-3.621l1.885-0.067V340.973z M389.902,336.797l-1.885,0.067v-3.622l1.885-0.068V336.797z
	 M389.902,332.617l-1.885,0.066v-3.619l1.885-0.068V332.617z M389.902,328.439l-1.885,0.066v-3.621l1.885-0.068V328.439z
	 M389.902,324.258l-1.885,0.068v-3.621l1.885-0.066V324.258z M389.902,320.078l-1.885,0.07v-3.622l1.885-0.067V320.078z
	 M389.902,315.9l-1.885,0.067v-3.702c0.666-0.321,1.295-0.531,1.885-0.664V315.9z M418.816,247.664l6.668-1.146v6.472l-6.668,0.851
	V247.664z M418.816,254.395l6.668-0.851v6.043l-6.668,0.85V254.395z M418.816,260.997l6.668-0.854v6.044l-6.668,0.851V260.997z
	 M418.265,273.984l-3.923,0.39v-6.209l3.923-0.502V273.984z M418.265,267.107l-3.923,0.5v-6.04l3.923-0.501V267.107z
	 M418.265,260.508l-3.923,0.503v-6.044l3.923-0.501V260.508z M418.265,253.908l-3.923,0.499v-5.974l3.923-0.674V253.908z
	 M418.816,267.595l6.668-0.853v6.518l-6.668,0.665V267.595z M421.447,338.455h-1.904v-7.787h1.904V338.455z M421.447,330.115h-1.904
	v-6.876h1.904V330.115z M421.447,322.688h-1.904v-7.455h1.904V322.688z M425.858,338.455h-3.854v-7.787h3.854V338.455z
	 M425.858,330.115h-3.854v-6.876h3.854V330.115z M425.858,322.688h-3.854v-7.455h3.854V322.688z M498.478,217.494l3.112-0.529
	v10.644l-3.112,0.712V217.494z M498.478,228.893l3.112-0.713v11.775l-3.112,0.524V228.893z M437.329,338.455h-1.999v-5.99
	l1.999-0.088V338.455z M437.329,331.823l-1.999,0.089v-6.455l1.999-0.091V331.823z M437.329,324.813l-1.999,0.09v-6.58l1.999-0.157
	V324.813z M437.329,317.611l-1.999,0.155v-6.03l1.999-0.127V317.611z M437.329,286.468l-1.999,0.353v-6.501l1.999-0.256V286.468z
	 M437.329,279.506l-1.999,0.256v-6.445l1.999-0.255V279.506z M437.329,272.505l-1.999,0.255v-6.447l1.999-0.255V272.505z
	 M437.329,265.503l-1.999,0.256v-6.058l1.999-0.353V265.503z M441.645,338.455h-3.76v-6.104l3.76-0.164V338.455z M441.645,331.635
	l-3.76,0.166v-6.46l3.76-0.172V331.635z M441.645,324.617l-3.76,0.172v-6.666l3.76-0.293V324.617z M441.645,317.276l-3.76,0.292
	v-5.994l3.76-0.238V317.276z M441.645,285.705l-3.76,0.662v-6.375l3.76-0.478V285.705z M441.645,278.956l-3.76,0.481v-6.444
	l3.76-0.484V278.956z M441.645,271.952l-3.76,0.481v-6.445l3.76-0.48V271.952z M441.645,264.952l-3.76,0.479v-6.18l3.76-0.665
	V264.952z M465.468,332.324h-3.021v-7.201l3.021-0.057V332.324z M465.468,324.508l-3.021,0.057v-7.426l3.021-0.125V324.508z
	 M465.468,316.454l-3.021,0.127v-6.174l3.021-0.191V316.454z M471.361,332.324h-5.34v-7.268l5.34-0.102V332.324z M471.361,324.398
	l-5.34,0.1v-7.509l5.34-0.222V324.398z M471.361,316.208l-5.34,0.226v-6.251l5.34-0.333V316.208z M479.769,333.25h-5.437v-8.35
	l5.437-0.104V333.25z M479.769,324.238l-5.437,0.102v-7.699l5.437-0.225V324.238z M479.769,315.857l-5.437,0.229v-7.723l5.437-0.352
	V315.857z M487.01,333.25h-6.688v-8.463l6.688-0.129V333.25z M487.01,324.102l-6.688,0.125v-7.836l6.688-0.278V324.102z
	 M487.01,315.556l-6.688,0.28v-7.86l6.688-0.429V315.556z M494.254,333.25h-6.684v-8.602l6.684-0.124V333.25z M494.254,323.963
	l-6.684,0.129v-8.005l6.684-0.28V323.963z M494.254,315.251l-6.684,0.28v-8.021l6.684-0.432V315.251z M503.122,333.25h-8.312v-8.737
	l8.255-0.159l0.057,0.003V333.25z M503.122,323.799l-0.051-0.002l-8.261,0.157v-8.167l8.247-0.348l0.064,0.004V323.799z
	 M503.122,314.884l-0.057-0.001l-8.255,0.346v-8.186l8.312-0.537V314.884z M505.306,216.336l0.555-0.096l16.715,15.046v5.151
	l-17.27,2.896V216.336z M507.625,333.25h-2.274v-8.818l2.274,0.078V333.25z M507.625,323.951l-2.274-0.078v-8.261l2.274,0.171
	V323.951z M507.625,315.226l-2.274-0.172v-8.548l2.274,0.316V315.226z M510.6,333.25h-2.414v-8.722l2.414,0.081V333.25z
	 M510.6,324.054l-2.414-0.084v-8.146l2.414,0.182V324.054z M510.6,315.451l-2.414-0.184v-8.365l2.414,0.334V315.451z
	 M513.572,333.25h-2.416v-8.619l2.416,0.08V333.25z M513.572,324.156l-2.416-0.082v-8.025l2.416,0.18V324.156z M513.572,315.672
	l-2.416-0.182v-8.178l2.416,0.335V315.672z M518.725,333.25h-4.597v-8.52l4.597,0.154V333.25z M518.725,324.33l-4.597-0.156v-7.902
	l4.597,0.344V324.33z M518.725,316.061l-4.597-0.347v-7.989l4.597,0.639V316.061z M520.814,332.324h-0.422v-7.379l0.422,0.012
	V332.324z M520.814,324.398l-0.422-0.013v-7.642l0.422,0.031V324.398z M520.814,316.215l-0.422-0.03v-6.335l0.422,0.058V316.215z
	 M524.296,332.324h-2.925v-7.349l2.925,0.101V332.324z M524.296,324.516l-2.925-0.096v-7.604l2.925,0.219V324.516z M524.296,316.477
	l-2.925-0.22v-6.269l2.925,0.419V316.477z M543.477,258.358l3.846-0.702v5.766l-3.846,0.416V258.358z M543.477,264.394l3.846-0.412
	v5.367l-3.846,0.412V264.394z M541.197,258.774l1.72-0.315v5.436l-1.72,0.186V258.774z M541.197,264.639l1.72-0.186v5.367
	l-1.72,0.186V264.639z M541.197,270.565l1.72-0.182v5.923l-1.72,0.104V270.565z M537.158,348.553l-0.788,0.082v-6.655l0.788-0.008
	V348.553z M537.158,341.41l-0.788,0.012v-5.513h0.788V341.41z M537.158,335.352h-0.788v-5.82l0.788,0.023V335.352z M537.158,328.998
	l-0.788-0.023v-5.756l0.788,0.045V328.998z M537.158,322.705l-0.788-0.043v-5.839l0.788,0.069V322.705z M537.158,316.332
	l-0.788-0.065v-5.953l0.788,0.099V316.332z M543.102,347.939l-5.385,0.555v-6.53l5.385-0.064V347.939z M543.102,341.341
	l-5.385,0.067v-5.499l5.385,0.009V341.341z M543.102,335.357l-5.385-0.002v-5.783l5.385,0.158V335.357z M543.102,329.174
	l-5.385-0.158v-5.723l5.385,0.295V329.174z M543.102,323.029l-5.385-0.297v-5.795l5.385,0.452V323.029z M543.102,316.831
	l-5.385-0.452v-5.896l5.385,0.678V316.831z M543.477,270.321l3.846-0.411v6.137l-3.846,0.229V270.321z M549.231,347.311
	l-5.573,0.574v-5.994l5.573-0.066V347.311z M549.231,341.268l-5.573,0.066v-5.416l5.573,0.003V341.268z M549.231,335.364
	l-5.573-0.003v-5.613l5.573,0.164V335.364z M549.231,329.354l-5.573-0.164v-5.568l5.573,0.303V329.354z M549.231,323.367
	l-5.573-0.306v-5.624l5.573,0.468V323.367z M549.231,317.346l-5.573-0.468v-5.649l5.573,0.701V317.346z M553.688,346.852
	l-3.899,0.402v-5.437l3.899-0.048V346.852z M553.688,341.214l-3.899,0.046v-5.339l3.899,0.006V341.214z M553.688,335.368
	l-3.899-0.004v-5.437l3.899,0.115V335.368z M553.688,329.486l-3.899-0.115v-5.414l3.899,0.211V329.486z M553.688,323.611
	l-3.899-0.213v-5.449l3.899,0.329V323.611z M553.688,317.721l-3.899-0.326v-5.396l3.899,0.491V317.721z M559.076,346.299
	l-4.826,0.495v-5.028l4.826-0.06V346.299z M559.076,341.145l-4.826,0.061v-5.278l4.826,0.003V341.145z M559.076,335.373
	l-4.826-0.005v-5.308l4.826,0.142V335.373z M559.076,329.646l-4.826-0.144v-5.301l4.826,0.264V329.646z M559.076,323.908
	l-4.826-0.266v-5.316l4.826,0.404V323.908z M559.076,318.173l-4.826-0.406v-5.207l4.826,0.606V318.173z M563.35,345.859
	l-3.716,0.381v-4.543l3.716-0.043V345.859z M563.35,341.094l-3.716,0.045v-5.209l3.716,0.006V341.094z M563.35,335.375l-3.716-0.002
	v-5.153l3.716,0.109V335.375z M563.35,329.77l-3.716-0.107v-5.167l3.716,0.205V329.77z M563.35,324.144l-3.716-0.204v-5.159
	l3.716,0.312V324.144z M563.35,318.535l-3.716-0.315v-4.984l3.716,0.468V318.535z M566.244,345.561l-2.34,0.241v-4.155l2.34-0.027
	V345.561z M566.244,341.061l-2.34,0.029v-5.154l2.34,0.001V341.061z M566.244,335.378l-2.34-0.003v-5.028l2.34,0.067V335.378z
	 M566.244,329.857l-2.34-0.07v-5.057l2.34,0.128V329.857z M566.244,324.301l-2.34-0.127v-5.035l2.34,0.195V324.301z
	 M566.244,318.773l-2.34-0.195v-4.803l2.34,0.291V318.773z M578.857,276.966l-0.492-0.229v-0.839
	c0.157,0.08,0.323,0.161,0.492,0.241V276.966z M578.365,274.846v-2.441l9.931-1.147v8.418L578.365,274.846z M588.251,284.043
	l0.002,0.793l-0.652,0.445l-0.003-0.789L588.251,284.043z M587.595,284.074l-0.008-0.614l0.539,0.249L587.595,284.074z
	 M588.26,285.252l0.006,0.789l-0.658,0.45V285.7L588.26,285.252z M588.266,286.458l0.005,0.793l-0.651,0.448l-0.004-0.791
	L588.266,286.458z M588.275,287.666l0.008,0.793l-0.654,0.448l-0.004-0.792L588.275,287.666z M588.284,288.874l0.002,0.53
	l-0.513-0.178L588.284,288.874z M586.379,281.684v-1.885c0.662,0.322,1.309,0.634,1.917,0.931v1.839L586.379,281.684z
	 M587.244,283.518l0.008,0.789l-0.652,0.449l-0.009-0.791L587.244,283.518z M586.588,283.547v-0.549l0.479,0.221L586.588,283.547z
	 M587.253,284.725l0.007,0.791l-0.651,0.448l-0.009-0.792L587.253,284.725z M587.265,285.935l0.004,0.79l-0.653,0.447l-0.007-0.791
	L587.265,285.935z M587.269,287.143l0.009,0.791l-0.653,0.447l-0.004-0.793L587.269,287.143z M586.626,288.799l0.654-0.449
	l0.002,0.705l-0.656-0.229V288.799z M579.964,276.678c1.647,0.802,3.512,1.705,5.311,2.584v1.908l-2.389-1.107v-1.227l-2.922-1.356
	V276.678z M585.237,282.468v0.79l-0.65,0.447l-0.006-0.789L585.237,282.468z M584.58,282.496l-0.003-0.433l0.377,0.177
	L584.58,282.496z M585.245,283.676l0.003,0.789l-0.654,0.449l-0.004-0.791L585.245,283.676z M585.251,284.884l0.006,0.791
	l-0.652,0.446l-0.006-0.789L585.251,284.884z M585.257,286.094l0.009,0.791l-0.651,0.446l-0.007-0.792L585.257,286.094z
	 M585.27,287.301l0.005,0.791l-0.256,0.175l-0.399-0.139l-0.003-0.38L585.27,287.301z M584.229,281.94l0.006,0.794l-0.653,0.447
	l-0.004-0.793L584.229,281.94z M583.571,281.973l-0.001-0.373l0.326,0.149L583.571,281.973z M584.238,283.152l0.008,0.787
	l-0.656,0.45l-0.007-0.792L584.238,283.152z M584.246,284.358l0.006,0.791l-0.652,0.45l-0.005-0.795L584.246,284.358z
	 M584.256,285.567l0.008,0.79l-0.656,0.448l-0.004-0.791L584.256,285.567z M584.267,286.773l0.002,0.792l-0.426,0.294l-0.227-0.082
	l-0.006-0.555L584.267,286.773z M584.271,287.983v0.022l-0.022-0.008L584.271,287.983z M583.268,287.654l-0.193-0.064l0.193-0.132
	V287.654z M583.233,282.625l0.005,0.79l-0.353,0.245v-0.798L583.233,282.625z M582.886,282.444v-0.793l0.32-0.222l0.02,0.012
	l0.007,0.767L582.886,282.444z M583.239,283.833l0.01,0.791l-0.363,0.25v-0.796L583.239,283.833z M583.25,285.043l0.006,0.793
	l-0.37,0.25v-0.793L583.25,285.043z M582.886,286.507l0.371-0.257l0.009,0.789l-0.38,0.264V286.507z M589.021,349.357h-6.032
	v-35.748h6.032V349.357z M591.947,282.507c0.729,0.353,1.194,0.581,1.271,0.615c0,0.122,0,0.337,0,0.583l-1.271-0.601V282.507z"/>
<g>
	<path fill="#F16522" d="M271.777,245.532v24.864h23.912v6.349h-23.912v25.075h-6.771v-25.075h-23.911v-6.349h23.911v-24.864
		H271.777z"/>
</g>
<g>
	<path fill="#F16522" d="M645.095,266.164v-6.348h54.595v6.348H645.095z M645.095,286.902v-6.349h54.595v6.349H645.095z"/>
</g>
<line fill="none" stroke="#808080" stroke-width="3" x1="736.089" y1="362.088" x2="884" y2="362.088"/>
<g>
	<path fill="none" stroke="#808080" stroke-width="2.5433" d="M174.087,386.262c0,0,0.81,1.867-10.958,6.941
		c-18.562,8.003-36.488,7.963-54.707,0.785c-12.428-4.897-13.52-7.727-13.52-7.727s0-175.431,0-185.409
		c0-13.841,79.186-14.164,79.186,0C174.087,215.016,174.087,386.262,174.087,386.262z"/>
	<path fill="#FFFFFF" stroke="#808080" stroke-width="2.5433" d="M173.765,358.258c11.6-0.342,23.198-0.816,34.776-1.613
		c10.49-0.721,21.91-0.809,31.916-4.33c3.965-1.396,8.087-4.445,9.743-8.479c3.279-7.989-6.613-8.274-12.88-7.38l-37.804-2.982
		c-13.386-1.107-29.348-2.358-32.401-2.645c-3.053-0.287-7.065-0.672-10.302-0.954c-2.194-0.19-9.646-0.801-16.045-1.231
		c-5.401-0.361-11.465-0.725-15.836,3.086c-7.219,6.292-7.809,19.857,0.533,25.583c5.517,3.786,12.464,2.233,18.687,2.233
		c1.931,0,18.348-0.965,18.348-0.965S173.751,358.258,173.765,358.258z"/>
	<circle fill="#808080" cx="134.977" cy="343.934" r="12.071"/>
	<path fill="#808080" d="M135.743,329.639c12.265,0.698,14.875,10.969,13.461,17.6c0.847-1.646,78.755,0,86.146-0.408
		c5.076-0.282,6.834-2.934,5.976-8.943c-0.188-1.315-0.091-1.248-2.48-1.526c-0.286,0.095-2.125,5.854-5.767,5.48
		c-22.933-2.369-45.931-4.036-68.652-8.08c-6.31-1.122-12.602-2.339-18.902-3.508C142.689,329.727,138.609,329.217,135.743,329.639z
		"/>
	<path fill="#808080" d="M162.177,263.08c0,2.827-1.61,6.126-4.185,6.126s-43.468,0-45.722,0c-2.253,0-4.815-2.461-4.815-4.305
		c0-12.2,0-57.573,0-62.327c0-5.472,54.722-4.506,54.722,0C162.177,206.34,162.177,248.713,162.177,263.08z"/>
	<path fill="#FFFFFF" d="M124.869,219.204c-0.866,0.578-8.442,0.586-9.691,0.066c-1.057-0.44-1.211-8.747-0.052-9.21
		c1.041-0.417,8.619-0.589,9.868,0.14C125.623,210.566,125.806,218.579,124.869,219.204z"/>
	<path fill="#FFFFFF" d="M139.917,219.204c-0.866,0.578-8.442,0.586-9.691,0.066c-1.057-0.44-1.211-8.747-0.052-9.21
		c1.041-0.417,8.619-0.589,9.867,0.14C140.67,210.566,140.853,218.579,139.917,219.204z"/>
	<path fill="#FFFFFF" d="M154.964,219.204c-0.866,0.578-8.442,0.586-9.691,0.066c-1.057-0.44-1.211-8.747-0.052-9.21
		c1.041-0.417,8.619-0.589,9.868,0.14C155.718,210.566,155.901,218.579,154.964,219.204z"/>
	<path fill="#FFFFFF" d="M124.869,232.768c-0.866,0.577-8.442,0.586-9.691,0.066c-1.057-0.44-1.211-8.746-0.052-9.21
		c1.041-0.416,8.619-0.589,9.868,0.14C125.623,224.13,125.806,232.143,124.869,232.768z"/>
	<path fill="#FFFFFF" d="M139.917,232.768c-0.866,0.577-8.442,0.586-9.691,0.066c-1.057-0.44-1.211-8.746-0.052-9.21
		c1.041-0.416,8.619-0.589,9.867,0.14C140.67,224.13,140.853,232.143,139.917,232.768z"/>
	<path fill="#FFFFFF" d="M154.964,232.768c-0.866,0.577-8.442,0.586-9.691,0.066c-1.057-0.44-1.211-8.746-0.052-9.21
		c1.041-0.416,8.619-0.589,9.868,0.14C155.718,224.13,155.901,232.143,154.964,232.768z"/>
	<path fill="#FFFFFF" d="M124.869,246.332c-0.866,0.578-8.442,0.587-9.691,0.066c-1.057-0.44-1.211-8.746-0.052-9.21
		c1.041-0.417,8.619-0.589,9.868,0.139C125.623,237.695,125.806,245.708,124.869,246.332z"/>
	<path fill="#FFFFFF" d="M139.917,246.332c-0.866,0.578-8.442,0.587-9.691,0.066c-1.057-0.44-1.211-8.746-0.052-9.21
		c1.041-0.417,8.619-0.589,9.867,0.139C140.67,237.695,140.853,245.708,139.917,246.332z"/>
	<path fill="#FFFFFF" d="M154.964,246.332c-0.866,0.578-8.442,0.587-9.691,0.066c-1.057-0.44-1.211-8.746-0.052-9.21
		c1.041-0.417,8.619-0.589,9.868,0.139C155.718,237.695,155.901,245.708,154.964,246.332z"/>
	<path fill="#FFFFFF" d="M124.869,261.062c-0.866,0.578-8.442,0.586-9.691,0.066c-1.057-0.44-1.211-8.747-0.052-9.21
		c1.041-0.417,8.619-0.589,9.868,0.14C125.623,252.425,125.806,260.438,124.869,261.062z"/>
	<path fill="#FFFFFF" d="M139.917,261.062c-0.866,0.578-8.442,0.586-9.691,0.066c-1.057-0.44-1.211-8.747-0.052-9.21
		c1.041-0.417,8.619-0.589,9.867,0.14C140.67,252.425,140.853,260.438,139.917,261.062z"/>
	<path fill="#FFFFFF" d="M154.964,261.062c-0.866,0.578-8.442,0.586-9.691,0.066c-1.057-0.44-1.211-8.747-0.052-9.21
		c1.041-0.417,8.619-0.589,9.868,0.14C155.718,252.425,155.901,260.438,154.964,261.062z"/>
</g>
<g>
</g>
<g>
</g>
<g>
</g>
<g>
</g>
<g>
</g>
<g>
</g>
<g>
</g>
<g>
</g>
<g>
</g>
<g>
</g>
<g>
</g>
<g>
</g>
<g>
</g>
<g>
</g>
<g>
</g>
</svg>
